<svg xmlns="http://www.w3.org/2000/svg" xmlns:xlink="http://www.w3.org/1999/xlink" viewBox="0 0 106.82 163.16"><defs><style>.cls-1,.cls-2,.cls-3{stroke:#fff;}.cls-1,.cls-2,.cls-3,.cls-4{stroke-miterlimit:10;}.cls-1{stroke-width:5px;fill:url(#New_Gradient_Swatch);}.cls-2,.cls-3{stroke-width:1.66px;}.cls-2{fill:url(#New_Gradient_Swatch-2);}.cls-3{fill:url(#New_Gradient_Swatch-3);}.cls-4{fill:#fff;stroke-width:2px;stroke:url(#New_Gradient_Swatch-4);}</style><linearGradient id="New_Gradient_Swatch" x1="2.5" y1="119.51" x2="80.69" y2="119.51" gradientUnits="userSpaceOnUse"><stop offset="0" stop-color="#662d91"/><stop offset="0.13" stop-color="#1b1464"/><stop offset="1" stop-color="#93278f"/></linearGradient><linearGradient id="New_Gradient_Swatch-2" x1="31.82" y1="37.08" x2="72.06" y2="37.08" xlink:href="#New_Gradient_Swatch"/><linearGradient id="New_Gradient_Swatch-3" x1="77.43" y1="24.15" x2="105.99" y2="24.15" xlink:href="#New_Gradient_Swatch"/><linearGradient id="New_Gradient_Swatch-4" x1="21.4" y1="133.32" x2="62.24" y2="133.32" xlink:href="#New_Gradient_Swatch"/></defs><g id="Layer_2" data-name="Layer 2"><g id="Layer_1-2" data-name="Layer 1"><path class="cls-1" d="M31.31,85.22c-1.22,0-2.38,0-3.53,0a3.44,3.44,0,0,1-3.12-4.57,3.37,3.37,0,0,1,3.09-2.29c.15,0,.29,0,.44,0H55a3.5,3.5,0,0,1,3.34,1.92,3.44,3.44,0,0,1-2.93,5c-1,0-2,0-3.08,0h-.48v.51q0,10.23,0,20.44a1.54,1.54,0,0,0,.23.78q13.27,21,26.58,41.92a12.46,12.46,0,0,1,1.9,4.5,5.87,5.87,0,0,1-4,6.66,12.63,12.63,0,0,1-4.13.63H10.69a10.91,10.91,0,0,1-4.9-1,5.82,5.82,0,0,1-3.19-6.34,11.16,11.16,0,0,1,1.57-3.94q4.61-7.29,9.22-14.56l17.7-27.91a1.32,1.32,0,0,0,.21-.67q0-10.32,0-20.64Zm-8.76,48H60.64l-.16-.28q-7.6-12-15.2-24a1.66,1.66,0,0,1-.24-.81Q45,97,45,85.74v-.49H38.17v.5q0,11.22,0,22.44a1.27,1.27,0,0,1-.16.64L23.32,132Z"/><path class="cls-2" d="M50.61,49.76V7.49c0-.65,0-1.31.07-2a1.32,1.32,0,0,1,1.21-1.17,5.09,5.09,0,0,1,2.33,0,1.16,1.16,0,0,1,1,1,24.62,24.62,0,0,0,7,12.71c1.4,1.45,2.9,2.82,4.3,4.26a18.92,18.92,0,0,1,5.28,10.5c1,6.79-1,12.9-5.66,18.39-.08.1-.17.18-.25.27l-.13.08.41-1a37.11,37.11,0,0,0,2.53-8.36c.6-3.88.32-7.64-2-11.13a23.4,23.4,0,0,0-7.76-7c-.88-.52-1.82-1-2.74-1.46a1.36,1.36,0,0,0-.4-.14c-.28,0-.49,0-.47.33a2.26,2.26,0,0,1,0,.26V55.92c0,.85.13,1.71.07,2.55-.33,5.16-4.72,10-10.63,11.18a11.46,11.46,0,0,1-11.66-4,6.76,6.76,0,0,1-1-5.77c.86-3.58,3.31-6.17,6.84-8a18.09,18.09,0,0,1,9.48-2.07C49.09,49.79,49.82,49.76,50.61,49.76Z"/><path class="cls-3" d="M90.72,33.19c0-.14,0-.25,0-.36q0-15.16,0-30.34c0-1.42.46-1.82,2.34-1.61a.94.94,0,0,1,1,.9A16.54,16.54,0,0,0,96.77,8a28.37,28.37,0,0,0,4.17,4.54,14.89,14.89,0,0,1,4.52,7.06,15.16,15.16,0,0,1-2.22,12.61c-.48.74-1.06,1.43-1.6,2.14l-.09,0c.27-.69.54-1.37.8-2.06a20,20,0,0,0,1.43-6.56c.13-3.67-1.59-6.64-4.61-9.12a22.9,22.9,0,0,0-4.45-2.76c-.46-.22-.61-.14-.61.33,0,7.79,0,15.57,0,23.36A9.71,9.71,0,0,1,93.85,41a9.29,9.29,0,0,1-7.65,6.35c-4.12.76-7.69-1.65-8.51-4.19a5.64,5.64,0,0,1,.7-4.78c1.62-2.72,4.3-4.27,7.67-5a15.08,15.08,0,0,1,4.08-.19Z"/><path class="cls-4" d="M35.47,143.48l-2.95,10.73H22.75L35.5,112.43H47.87l13,41.78H50.7l-3.22-10.73Zm10.61-7-2.6-8.88c-.72-2.47-1.46-5.61-2.1-8h-.13c-.61,2.46-1.24,5.63-1.91,8.06l-2.5,8.87Z"/></g></g></svg>