<svg xmlns="http://www.w3.org/2000/svg" xmlns:xlink="http://www.w3.org/1999/xlink" viewBox="0 0 477.97 138.11"><defs><style>.cls-1{stroke:#000;stroke-width:5px;fill:url(#New_Gradient_Swatch);}.cls-1,.cls-10,.cls-11,.cls-12,.cls-13,.cls-14,.cls-15,.cls-16,.cls-17,.cls-4,.cls-5,.cls-6,.cls-7,.cls-8,.cls-9{stroke-miterlimit:10;}.cls-2{fill:url(#New_Gradient_Swatch-2);}.cls-3{fill:url(#New_Gradient_Swatch-3);}.cls-10,.cls-11,.cls-12,.cls-13,.cls-14,.cls-15,.cls-16,.cls-17,.cls-4,.cls-5,.cls-6,.cls-7,.cls-8,.cls-9{fill:#fff;}.cls-4{stroke:url(#New_Gradient_Swatch-4);}.cls-5{stroke:url(#New_Gradient_Swatch-5);}.cls-6{stroke:url(#New_Gradient_Swatch-6);}.cls-7{stroke:url(#New_Gradient_Swatch-7);}.cls-8{stroke:url(#New_Gradient_Swatch-8);}.cls-9{stroke:url(#New_Gradient_Swatch-9);}.cls-10{stroke:url(#New_Gradient_Swatch-10);}.cls-11{stroke:url(#New_Gradient_Swatch-11);}.cls-12{stroke:url(#New_Gradient_Swatch-12);}.cls-13{stroke:url(#New_Gradient_Swatch-13);}.cls-14{stroke:url(#New_Gradient_Swatch-14);}.cls-15{stroke:url(#New_Gradient_Swatch-15);}.cls-16{stroke:url(#New_Gradient_Swatch-16);}.cls-17{stroke:url(#New_Gradient_Swatch-17);}</style><linearGradient id="New_Gradient_Swatch" x1="2.5" y1="94.45" x2="80.69" y2="94.45" gradientUnits="userSpaceOnUse"><stop offset="0" stop-color="#662d91"/><stop offset="0.13" stop-color="#1b1464"/><stop offset="1" stop-color="#93278f"/></linearGradient><linearGradient id="New_Gradient_Swatch-2" x1="31.82" y1="23.54" x2="54.4" y2="23.54" xlink:href="#New_Gradient_Swatch"/><linearGradient id="New_Gradient_Swatch-3" x1="57.42" y1="15.14" x2="73.45" y2="15.14" xlink:href="#New_Gradient_Swatch"/><linearGradient id="New_Gradient_Swatch-4" x1="27.08" y1="90.26" x2="66.56" y2="90.26" xlink:href="#New_Gradient_Swatch"/><linearGradient id="New_Gradient_Swatch-5" x1="69.58" y1="96.33" x2="99.54" y2="96.33" xlink:href="#New_Gradient_Swatch"/><linearGradient id="New_Gradient_Swatch-6" x1="104.1" y1="89.49" x2="136.5" y2="89.49" xlink:href="#New_Gradient_Swatch"/><linearGradient id="New_Gradient_Swatch-7" x1="142.52" y1="89.41" x2="153.5" y2="89.41" xlink:href="#New_Gradient_Swatch"/><linearGradient id="New_Gradient_Swatch-8" x1="158.04" y1="95.98" x2="190.7" y2="95.98" xlink:href="#New_Gradient_Swatch"/><linearGradient id="New_Gradient_Swatch-9" x1="205.2" y1="90.26" x2="244.68" y2="90.26" xlink:href="#New_Gradient_Swatch"/><linearGradient id="New_Gradient_Swatch-10" x1="248.37" y1="89.15" x2="258.82" y2="89.15" xlink:href="#New_Gradient_Swatch"/><linearGradient id="New_Gradient_Swatch-11" x1="263.69" y1="95.98" x2="289.31" y2="95.98" xlink:href="#New_Gradient_Swatch"/><linearGradient id="New_Gradient_Swatch-12" x1="293.38" y1="89.15" x2="323.19" y2="89.15" xlink:href="#New_Gradient_Swatch"/><linearGradient id="New_Gradient_Swatch-13" x1="327.98" y1="95.97" x2="357.82" y2="95.97" xlink:href="#New_Gradient_Swatch"/><linearGradient id="New_Gradient_Swatch-14" x1="362.18" y1="95.64" x2="409.27" y2="95.64" xlink:href="#New_Gradient_Swatch"/><linearGradient id="New_Gradient_Swatch-15" x1="415.5" y1="89.41" x2="426.48" y2="89.41" xlink:href="#New_Gradient_Swatch"/><linearGradient id="New_Gradient_Swatch-16" x1="430.93" y1="95.97" x2="454.94" y2="95.97" xlink:href="#New_Gradient_Swatch"/><linearGradient id="New_Gradient_Swatch-17" x1="456.92" y1="91.92" x2="477.97" y2="91.92" xlink:href="#New_Gradient_Swatch"/></defs><g id="Layer_2" data-name="Layer 2"><g id="Layer_1-2" data-name="Layer 1"><path class="cls-1" d="M31.31,60.17c-1.22,0-2.38,0-3.53,0a3.43,3.43,0,0,1-3.12-4.56,3.37,3.37,0,0,1,3.09-2.29H55a3.5,3.5,0,0,1,3.34,1.92,3.44,3.44,0,0,1-2.93,4.95c-1,0-2,0-3.08,0h-.48v.51q0,10.21,0,20.44a1.51,1.51,0,0,0,.23.77q13.27,21,26.58,41.93a12.41,12.41,0,0,1,1.9,4.49,5.88,5.88,0,0,1-4,6.67,12.62,12.62,0,0,1-4.13.62q-30.9,0-61.8,0a11,11,0,0,1-4.9-1,5.84,5.84,0,0,1-3.19-6.35,11.16,11.16,0,0,1,1.57-3.94q4.61-7.29,9.22-14.55l17.7-27.92a1.32,1.32,0,0,0,.21-.66q0-10.32,0-20.64Zm-8.76,48H60.64l-.16-.28q-7.6-12-15.2-24a1.66,1.66,0,0,1-.24-.81q0-11.2,0-22.4V60.2H38.17v.5q0,11.22,0,22.44a1.26,1.26,0,0,1-.16.63L23.32,106.92Z"/><path class="cls-2" d="M42.37,31.77V4.32c0-.42,0-.84,0-1.27a.82.82,0,0,1,.69-.76,2.49,2.49,0,0,1,1.3,0,.75.75,0,0,1,.55.62,16.87,16.87,0,0,0,3.94,8.26c.79.93,1.62,1.83,2.41,2.76a13.12,13.12,0,0,1,3,6.82,15.94,15.94,0,0,1-3.17,11.94l-.14.18-.08.05c.09-.25.16-.46.23-.67a26.8,26.8,0,0,0,1.42-5.43,11,11,0,0,0-1.12-7.23A14.18,14.18,0,0,0,47,15.06c-.49-.34-1-.63-1.54-1a.73.73,0,0,0-.22-.09c-.16,0-.28,0-.27.21a1,1,0,0,1,0,.17q0,10.69,0,21.37c0,.55.06,1.11,0,1.66a8,8,0,0,1-6,7.26,6,6,0,0,1-6.55-2.61A5,5,0,0,1,32,38.33a7.83,7.83,0,0,1,3.84-5.22,9,9,0,0,1,5.32-1.34C41.52,31.79,41.92,31.77,42.37,31.77Z"/><path class="cls-3" d="M64.88,21c0-.09,0-.16,0-.23q0-9.85,0-19.7c0-.93.26-1.18,1.32-1,.36,0,.48.21.54.58a11.78,11.78,0,0,0,1.54,4.07,17.88,17.88,0,0,0,2.34,2.94,10,10,0,0,1,2.53,4.59A11,11,0,0,1,71.9,20.4c-.26.48-.59.93-.89,1.39l-.05,0,.45-1.34a14.66,14.66,0,0,0,.8-4.26,7.57,7.57,0,0,0-2.59-5.92,12.26,12.26,0,0,0-2.5-1.79c-.26-.15-.34-.09-.34.21,0,5.06,0,10.12,0,15.17a7.63,7.63,0,0,1-.15,2.24,5.52,5.52,0,0,1-4.3,4.12,4.13,4.13,0,0,1-4.78-2.72,4.18,4.18,0,0,1,.4-3.1,6.29,6.29,0,0,1,4.31-3.26A7.59,7.59,0,0,1,64.55,21Z"/><path d="M34.36,100l-2.95,10.73H21.64L34.39,69H46.75l13,41.78H49.58L46.37,100ZM45,93l-2.6-8.88c-.72-2.47-1.46-5.61-2.1-8h-.13c-.62,2.46-1.24,5.63-1.91,8.06L35.73,93Z"/><path d="M92.65,101c0,3.94.12,7.2.25,9.72H84.72l-.44-4.28h-.19a10.76,10.76,0,0,1-9.46,5c-6.16,0-10.66-3.85-10.66-13.18V80.41h9.45V96.72c0,4.44,1.42,7.09,4.75,7.09a5,5,0,0,0,4.69-3.31,5.16,5.16,0,0,0,.34-2V80.41h9.45Z"/><path d="M129.6,66.74v35c0,3.44.12,7,.25,9.06h-8.38l-.4-4.44h-.13a10.59,10.59,0,0,1-9.5,5.12c-7.16,0-13-6.14-13-15.58,0-10.18,6.35-16.12,13.58-16.12,3.74,0,6.62,1.33,8,3.43h.13V66.74Zm-9.43,26.55a9,9,0,0,0-.13-1.71A5.59,5.59,0,0,0,114.58,87c-4.33,0-6.52,3.83-6.52,8.61,0,5.11,2.52,8.33,6.45,8.33A5.57,5.57,0,0,0,120,99.39a9.63,9.63,0,0,0,.2-2.13Z"/><path d="M146.88,72c0,2.63-1.92,4.72-5.07,4.72A4.73,4.73,0,1,1,146.88,72Zm-9.71,38.77V80.41h9.45v30.34Z"/><path d="M184.09,95.28c0,11.09-7.86,16.15-16,16.15-8.82,0-15.66-5.83-15.66-15.63s6.46-16.07,16.21-16.07C177.92,79.73,184.09,86.11,184.09,95.28Zm-21.94.31c0,5.18,2.19,9.11,6.21,9.11,3.68,0,6-3.69,6-9.16,0-4.48-1.72-9.07-6-9.07C163.87,86.47,162.15,91.09,162.15,95.59Z"/><path d="M212.48,100l-2.95,10.73h-9.77L212.51,69h12.37l13,41.78H227.71L224.49,100Zm10.61-7-2.6-8.88c-.72-2.47-1.46-5.61-2.1-8h-.13c-.61,2.46-1.24,5.63-1.91,8.06L213.85,93Z"/><path d="M242.75,66.74h9.45v44h-9.45Z"/><path d="M282.57,110a22.1,22.1,0,0,1-8.45,1.41c-9.8,0-16.05-6-16.05-15.53,0-8.87,6.07-16.12,17.35-16.12a21.6,21.6,0,0,1,7.2,1.2l-1.47,7a12.65,12.65,0,0,0-5.28-1c-5,0-8.18,3.54-8.15,8.5,0,5.57,3.74,8.53,8.31,8.53a14.06,14.06,0,0,0,5.43-1Z"/><path d="M287.77,66.74h9.44V84.06h.13a10.76,10.76,0,0,1,8.6-4.33c6,0,10.63,4.17,10.63,13.32v17.7h-9.44V94.08c0-4-1.38-6.72-4.88-6.72a5,5,0,0,0-4.73,3.33,5.75,5.75,0,0,0-.31,2.06v18h-9.44Z"/><path d="M331.37,98.61c.28,3.92,4.15,5.78,8.55,5.78a25.2,25.2,0,0,0,8.35-1.29l1.27,6.39a29.4,29.4,0,0,1-11,1.91c-10.28,0-16.18-6-16.18-15.44,0-7.71,4.81-16.23,15.29-16.23,9.84,0,13.55,7.64,13.55,15.15a17.72,17.72,0,0,1-.34,3.73Zm11.07-6.46c0-2.27-1-6.15-5.29-6.15-4,0-5.6,3.64-5.86,6.15Z"/><path d="M356.83,90.1c0-3.78-.11-7-.24-9.69h8l.4,4.11h.2a10.51,10.51,0,0,1,9.15-4.79,8.56,8.56,0,0,1,8.31,5.2h.13a12.62,12.62,0,0,1,3.94-3.7,10.75,10.75,0,0,1,5.75-1.5c5.8,0,10.22,4.1,10.22,13.16v17.86h-9.18V94.27c0-4.39-1.41-6.94-4.46-6.94a4.59,4.59,0,0,0-4.34,3.28,8.29,8.29,0,0,0-.34,2.4v17.74h-9.18v-17c0-3.82-1.36-6.41-4.37-6.41a4.84,4.84,0,0,0-4.43,3.38A7.14,7.14,0,0,0,366,93.1v17.65h-9.18Z"/><path d="M419.87,72c0,2.63-1.93,4.72-5.07,4.72A4.73,4.73,0,1,1,419.87,72Zm-9.72,38.77V80.41h9.45v30.34Z"/><path d="M427.1,102.53a18.29,18.29,0,0,0,8.09,2.26c2.85,0,4.07-1,4.07-2.51s-1-2.33-4.46-3.51c-6.31-2.07-8.68-5.5-8.65-9.07,0-5.69,4.81-10,12.34-10A20.21,20.21,0,0,1,447,81.49L445.4,88a15.58,15.58,0,0,0-6.58-1.71c-2.3,0-3.62.92-3.62,2.44s1.2,2.22,4.92,3.51c5.76,2,8.17,4.91,8.21,9.34,0,5.66-4.42,9.83-13.11,9.83a21.71,21.71,0,0,1-9.83-2.13Z"/><path d="M464.57,71.75v8.66h6.79v7h-6.79v11c0,3.66.91,5.35,3.72,5.35a12.68,12.68,0,0,0,2.81-.28l.07,7.16a19.91,19.91,0,0,1-6.11.81,9.87,9.87,0,0,1-7.11-2.63c-1.75-1.8-2.61-4.68-2.61-9V87.37h-4v-7h4V73.89Z"/><path class="cls-4" d="M40.47,100.43l-2.95,10.73H27.75L40.5,69.37H52.87l13,41.79H55.7l-3.22-10.73Zm10.61-7-2.6-8.88c-.72-2.47-1.46-5.6-2.1-8.05h-.13c-.61,2.46-1.24,5.63-1.91,8.06l-2.5,8.87Z"/><path class="cls-5" d="M98.77,101.43c0,3.95.11,7.2.24,9.73H90.83l-.43-4.29h-.2a10.75,10.75,0,0,1-9.46,5c-6.16,0-10.66-3.86-10.66-13.19V80.81h9.45V97.12c0,4.44,1.43,7.1,4.75,7.1A5,5,0,0,0,89,100.9a5.11,5.11,0,0,0,.35-2V80.81h9.45Z"/><path class="cls-6" d="M135.72,67.14v35c0,3.45.11,7,.24,9.07h-8.38l-.4-4.45h-.13a10.56,10.56,0,0,1-9.5,5.13c-7.16,0-13-6.15-13-15.58,0-10.19,6.35-16.13,13.58-16.13,3.75,0,6.62,1.33,8,3.43h.12V67.14Zm-9.44,26.55a9.91,9.91,0,0,0-.12-1.71,5.61,5.61,0,0,0-5.47-4.61c-4.32,0-6.51,3.83-6.51,8.62,0,5.1,2.51,8.33,6.44,8.33a5.56,5.56,0,0,0,5.46-4.52,9.1,9.1,0,0,0,.2-2.14Z"/><path class="cls-7" d="M153,72.39c0,2.62-1.93,4.71-5.07,4.71A4.73,4.73,0,1,1,153,72.39Zm-9.72,38.77V80.81h9.45v30.35Z"/><path class="cls-8" d="M190.2,95.68c0,11.09-7.85,16.16-16,16.16-8.83,0-15.67-5.84-15.67-15.63S165,80.13,174.75,80.13C184,80.13,190.2,86.52,190.2,95.68ZM168.26,96c0,5.18,2.19,9.11,6.21,9.11,3.68,0,6-3.68,6-9.16,0-4.47-1.73-9.07-6-9.07C170,86.87,168.26,91.49,168.26,96Z"/><path class="cls-9" d="M218.59,100.43l-3,10.73h-9.77l12.76-41.79H231l13,41.79H233.82l-3.21-10.73Zm10.62-7-2.6-8.88c-.72-2.47-1.46-5.6-2.1-8.05h-.14c-.61,2.46-1.24,5.63-1.91,8.06L220,93.39Z"/><path class="cls-10" d="M248.87,67.14h9.45v44h-9.45Z"/><path class="cls-11" d="M288.69,110.4a22.33,22.33,0,0,1-8.45,1.41c-9.81,0-16.05-6-16.05-15.53,0-8.87,6.07-16.13,17.35-16.13a21.9,21.9,0,0,1,7.2,1.2l-1.47,7a12.69,12.69,0,0,0-5.28-1c-5,0-8.19,3.54-8.15,8.51,0,5.57,3.74,8.53,8.3,8.53a14.1,14.1,0,0,0,5.44-1Z"/><path class="cls-12" d="M293.88,67.14h9.45V84.47h.12a10.89,10.89,0,0,1,3.69-3.14,10.56,10.56,0,0,1,4.92-1.2c6,0,10.63,4.17,10.63,13.32v17.71h-9.45V94.49c0-4-1.38-6.73-4.88-6.73a5,5,0,0,0-4.73,3.34,5.9,5.9,0,0,0-.3,2.06v18h-9.45Z"/><path class="cls-13" d="M337.48,99c.28,3.91,4.15,5.77,8.55,5.77a25.2,25.2,0,0,0,8.35-1.28l1.28,6.38a29.46,29.46,0,0,1-11,1.92c-10.28,0-16.18-6-16.18-15.44,0-7.71,4.81-16.24,15.3-16.24,9.83,0,13.54,7.64,13.54,15.15A18.72,18.72,0,0,1,357,99Zm11.08-6.46c0-2.28-1-6.15-5.29-6.15-4,0-5.6,3.64-5.87,6.15Z"/><path class="cls-14" d="M363,90.5c0-3.77-.12-7-.25-9.69h8l.4,4.11h.2a10.53,10.53,0,0,1,9.16-4.79,8.55,8.55,0,0,1,8.3,5.2h.13a12.62,12.62,0,0,1,3.94-3.7,10.88,10.88,0,0,1,5.76-1.5c5.79,0,10.21,4.1,10.21,13.17v17.86H399.6V94.68c0-4.4-1.42-7-4.47-7A4.61,4.61,0,0,0,390.79,91a8.22,8.22,0,0,0-.34,2.39v17.75h-9.18v-17c0-3.83-1.36-6.42-4.37-6.42a4.83,4.83,0,0,0-4.42,3.39,6.86,6.86,0,0,0-.35,2.39v17.65H363Z"/><path class="cls-15" d="M426,72.39c0,2.62-1.93,4.71-5.07,4.71A4.73,4.73,0,1,1,426,72.39Zm-9.71,38.77V80.81h9.44v30.35Z"/><path class="cls-16" d="M433.21,102.94a18.46,18.46,0,0,0,8.09,2.25c2.85,0,4.07-1,4.07-2.5s-1-2.34-4.45-3.51c-6.31-2.08-8.69-5.51-8.65-9.07,0-5.7,4.81-10,12.34-10a20,20,0,0,1,8.54,1.77l-1.64,6.5a15.42,15.42,0,0,0-6.57-1.72c-2.31,0-3.63.92-3.63,2.45s1.21,2.22,4.93,3.5c5.75,2,8.17,4.92,8.2,9.34,0,5.66-4.41,9.84-13.11,9.84a21.66,21.66,0,0,1-9.82-2.14Z"/><path class="cls-17" d="M470.68,72.16v8.65h6.79v7h-6.79v11c0,3.66.91,5.35,3.72,5.35a12.68,12.68,0,0,0,2.81-.28l.07,7.17a19.86,19.86,0,0,1-6.11.81,9.83,9.83,0,0,1-7.11-2.64c-1.75-1.79-2.61-4.68-2.61-9V87.77h-4v-7h4V74.29Z"/></g></g></svg>